<svg xmlns="http://www.w3.org/2000/svg" xmlns:xlink="http://www.w3.org/1999/xlink" width="150" zoomAndPan="magnify" viewBox="0 0 112.5 112.499997" height="150" preserveAspectRatio="xMidYMid meet" version="1.0"><defs><clipPath id="6af1fb7c9d"><path d="M 0 0 L 112.003906 0 L 112.003906 112.003906 L 0 112.003906 Z M 0 0 " clip-rule="nonzero"/></clipPath><clipPath id="bc08657074"><path d="M 0 0 L 112.003906 0 L 112.003906 112.003906 L 0 112.003906 Z M 0 0 " clip-rule="nonzero"/></clipPath><clipPath id="677499d271"><path d="M 55.761719 55.761719 C 53.855469 87.21875 29.789062 111.289062 0 112.003906 C 0.476562 81.976562 24.546875 57.667969 55.761719 55.761719 Z M 55.761719 55.761719 C 87.21875 57.667969 111.289062 81.976562 112.003906 112.003906 C 81.976562 111.289062 57.667969 87.21875 55.761719 55.761719 Z M 0 0 C 29.789062 0.476562 53.855469 24.546875 55.761719 55.761719 C 24.546875 53.855469 0.476562 29.789062 0 0 Z M 112.003906 0 C 111.289062 29.789062 87.21875 53.855469 55.761719 55.761719 C 57.667969 24.546875 81.976562 0.476562 112.003906 0 Z M 112.003906 0 " clip-rule="nonzero"/></clipPath><clipPath id="f1b5e67904"><path d="M 0 0 L 112.003906 0 L 112.003906 112.003906 L 0 112.003906 Z M 0 0 " clip-rule="nonzero"/></clipPath><clipPath id="d160bb3d4a"><path d="M 55.761719 55.761719 C 53.855469 87.21875 29.789062 111.289062 0 112.003906 C 0.476562 81.976562 24.546875 57.667969 55.761719 55.761719 Z M 55.761719 55.761719 C 87.21875 57.667969 111.289062 81.976562 112.003906 112.003906 C 81.976562 111.289062 57.667969 87.21875 55.761719 55.761719 Z M 0 0 C 29.789062 0.476562 53.855469 24.546875 55.761719 55.761719 C 24.546875 53.855469 0.476562 29.789062 0 0 Z M 112.003906 0 C 111.289062 29.789062 87.21875 53.855469 55.761719 55.761719 C 57.667969 24.546875 81.976562 0.476562 112.003906 0 Z M 112.003906 0 " clip-rule="nonzero"/></clipPath><clipPath id="97bf29a360"><rect x="0" width="113" y="0" height="113"/></clipPath></defs><g clip-path="url(#6af1fb7c9d)"><path fill="#ffffff" d="M 0 0 L 112.003906 0 L 112.003906 112.003906 L 0 112.003906 Z M 0 0 " fill-opacity="1" fill-rule="nonzero"/><path fill="#ffffff" d="M 0 0 L 112.003906 0 L 112.003906 112.003906 L 0 112.003906 Z M 0 0 " fill-opacity="1" fill-rule="nonzero"/></g><g clip-path="url(#bc08657074)"><g clip-path="url(#677499d271)"><g transform="matrix(1, 0, 0, 1, 0, -0.000000000000000624)"><g clip-path="url(#97bf29a360)"><g clip-path="url(#f1b5e67904)"><g clip-path="url(#d160bb3d4a)"><path fill="#ffde59" d="M 0 0 L 112.003906 0 L 112.003906 112.003906 L 0 112.003906 Z M 0 0 " fill-opacity="1" fill-rule="nonzero"/></g></g></g></g></g></g></svg>